<svg xmlns="http://www.w3.org/2000/svg" viewBox="0 0 400 300" fill="none">
  <rect width="400" height="300" rx="16" fill="#f0fdfa"/>
  <rect x="158" y="45" width="84" height="120" rx="12" fill="white" stroke="#0d9488" stroke-width="2.5"/>
  <rect x="174" y="60" width="52" height="82" rx="7" fill="#ccfbf1"/>
  <rect x="184" y="70" width="32" height="62" rx="5" fill="#5eead4" opacity="0.22"/>
  <path d="M192 80 L192 102 C192 110 196 114 200 118 C204 114 208 110 208 102 L208 80 L200 75 Z" fill="#0d9488" opacity="0.18" stroke="#0d9488" stroke-width="1.5" opacity="0.25"/>
  <path d="M196 96 L199 99 L206 91" stroke="#0d9488" stroke-width="1.5" fill="none" stroke-linecap="round" opacity="0.35"/>
  <line x1="200" y1="165" x2="200" y2="210" stroke="#0d9488" stroke-width="2.5" stroke-dasharray="6 4"/>
  <ellipse cx="200" cy="195" rx="3.5" ry="5" fill="#14b8a6" opacity="0.4"/>
  <line x1="200" y1="28" x2="200" y2="45" stroke="#94a3b8" stroke-width="2.5"/>
  <line x1="186" y1="28" x2="214" y2="28" stroke="#94a3b8" stroke-width="2.5" stroke-linecap="round"/>
  <text x="200" y="248" text-anchor="middle" font-family="'Segoe UI',Arial,sans-serif" font-size="16" font-weight="700" fill="#115e59">Bagisiklik Serumu</text>
</svg>