<svg xmlns="http://www.w3.org/2000/svg" viewBox="0 0 400 300" fill="none">
  <rect width="400" height="300" rx="16" fill="#f8fafc"/>
  <rect x="155" y="42" width="90" height="128" rx="14" fill="white" stroke="#1e293b" stroke-width="2.5"/>
  <rect x="172" y="58" width="56" height="88" rx="9" fill="#f1f5f9"/>
  <rect x="182" y="68" width="36" height="68" rx="5" fill="#fbbf24" opacity="0.12"/>
  <rect x="182" y="95" width="36" height="41" rx="5" fill="#f59e0b" opacity="0.08"/>
  <polygon points="200,74 204,83 213,84 206,90 208,99 200,94 192,99 194,90 187,84 196,83" fill="#f59e0b" opacity="0.28"/>
  <line x1="200" y1="170" x2="200" y2="215" stroke="#1e293b" stroke-width="2.5" stroke-dasharray="6 4" opacity="0.45"/>
  <ellipse cx="200" cy="200" rx="3.5" ry="5" fill="#f59e0b" opacity="0.3"/>
  <line x1="200" y1="25" x2="200" y2="42" stroke="#94a3b8" stroke-width="2.5"/>
  <line x1="184" y1="25" x2="216" y2="25" stroke="#94a3b8" stroke-width="2.5" stroke-linecap="round"/>
  <text x="200" y="248" text-anchor="middle" font-family="'Segoe UI',Arial,sans-serif" font-size="16" font-weight="700" fill="#1e293b">VIP / Ozel</text>
</svg>