<svg xmlns="http://www.w3.org/2000/svg" viewBox="0 0 400 300" fill="none">
  <rect width="400" height="300" rx="16" fill="#ecfdf5"/>
  <rect x="158" y="45" width="84" height="120" rx="12" fill="white" stroke="#059669" stroke-width="2.5"/>
  <rect x="174" y="60" width="52" height="82" rx="7" fill="#d1fae5"/>
  <rect x="184" y="70" width="32" height="62" rx="5" fill="#6ee7b7" opacity="0.25"/>
  <path d="M190 90 C190 78 204 74 212 82 C220 92 212 106 200 106 C192 106 190 98 190 90Z" fill="#059669" opacity="0.18"/>
  <path d="M194 100 C197 93 204 87 212 82" stroke="#059669" stroke-width="1" fill="none" opacity="0.25"/>
  <line x1="200" y1="165" x2="200" y2="210" stroke="#059669" stroke-width="2.5" stroke-dasharray="6 4"/>
  <ellipse cx="200" cy="195" rx="3.5" ry="5" fill="#34d399" opacity="0.4"/>
  <line x1="200" y1="28" x2="200" y2="45" stroke="#94a3b8" stroke-width="2.5"/>
  <line x1="186" y1="28" x2="214" y2="28" stroke="#94a3b8" stroke-width="2.5" stroke-linecap="round"/>
  <text x="200" y="248" text-anchor="middle" font-family="'Segoe UI',Arial,sans-serif" font-size="16" font-weight="700" fill="#065f46">Detox Serumu</text>
</svg>