<svg xmlns="http://www.w3.org/2000/svg" viewBox="0 0 400 300" fill="none">
  <rect width="400" height="300" rx="16" fill="#fdf4ff"/>
  <rect x="158" y="45" width="84" height="120" rx="12" fill="white" stroke="#a855f7" stroke-width="2.5"/>
  <rect x="174" y="60" width="52" height="82" rx="7" fill="#f3e8ff"/>
  <rect x="184" y="70" width="32" height="62" rx="5" fill="#c084fc" opacity="0.18"/>
  <polygon points="200,78 208,92 200,106 192,92" fill="#a855f7" opacity="0.22"/>
  <path d="M280 80 L284 72 L288 80 L284 88Z" fill="#a855f7" opacity="0.2"/>
  <path d="M125 105 L128 99 L131 105 L128 111Z" fill="#c084fc" opacity="0.2"/>
  <line x1="200" y1="165" x2="200" y2="210" stroke="#a855f7" stroke-width="2.5" stroke-dasharray="6 4"/>
  <ellipse cx="200" cy="195" rx="3.5" ry="5" fill="#c084fc" opacity="0.4"/>
  <line x1="200" y1="28" x2="200" y2="45" stroke="#94a3b8" stroke-width="2.5"/>
  <line x1="186" y1="28" x2="214" y2="28" stroke="#94a3b8" stroke-width="2.5" stroke-linecap="round"/>
  <text x="200" y="248" text-anchor="middle" font-family="'Segoe UI',Arial,sans-serif" font-size="16" font-weight="700" fill="#7e22ce">Guzellik Serumu</text>
</svg>